<?xml version="1.0" encoding="utf-8" ?>
<svg xmlns="http://www.w3.org/2000/svg" xmlns:xlink="http://www.w3.org/1999/xlink" width="17" height="12">
	<defs>
		<clipPath id="clip_0">
			<rect x="-193" y="-451.92999" width="1116" height="1376.4" clip-rule="evenodd"/>
		</clipPath>
	</defs>
	<g clip-path="url(#clip_0)">
		<path fill="rgb(3,166,242)" stroke="none" transform="matrix(0.93 0 0 0.93 0.71814 0.431702)" d="M16.4848 0.331207C16.0432 -0.110402 15.346 -0.110402 14.9043 0.331207C14.9043 0.331207 14.9043 0.331207 14.9043 0.331207L5.44459 9.79095L1.91171 6.23483C1.4701 5.79322 0.772818 5.79322 0.331208 6.23483C-0.110403 6.67644 -0.110403 7.37372 0.331208 7.81533L4.65434 12.1385L4.65434 12.1385C5.09595 12.5801 5.79323 12.5801 6.23484 12.1385C6.23484 12.1385 6.23484 12.1385 6.23484 12.1385L16.4848 1.88846C16.9032 1.4701 16.9032 0.772817 16.4848 0.331207Z"/>
	</g>

</svg>